# xmcd CD database file
#
# Track frame offsets:
#	150
#	28389
#	52461
#	107708
#	148284
#	189373
#	250954
#
# Disc length: 3930 seconds
#
# Revision: 0
# Processed by: cddbd v1.5.2PL0 Copyright (c) Steve Scherf et al.
# Submitted via: CDex 1.51
#
DISCID=6f0f5807
DTITLE=Ketil Bjornstad - Vinding's Music-Songs From The Alder Thicket [CD2)
DYEAR=2012
DGENRE=Jazz
TTITLE0=Adagio From Piano Concerto No 23 In A Major KV 488
TTITLE1=Clair de Lune From Suite Bergamasque
TTITLE2=Adagio Sostenuto From Piano Concerto No 2 In C Minor op 18
TTITLE3=Ballade No 1 in G Minor op 23
TTITLE4=Adagio Assai From Piano Concerto in G Major
TTITLE5=Gesangvoll from Sonata No 30 in E Major op 109
TTITLE6=Adagio For Strings
EXTD=YEAR: 2012
EXTT0=
EXTT1=
EXTT2=
EXTT3=
EXTT4=
EXTT5=
EXTT6=
PLAYORDER=
